<svg width="1229" height="177" viewBox="0 0 1229 177" fill="none" xmlns="http://www.w3.org/2000/svg">
<path d="M1096.35 34.2366H1140.36L1140.5 168.965C1140.5 170.694 1141.91 172.12 1143.65 172.12L1168.86 172.103C1170.6 172.103 1172.01 170.695 1172.01 168.948L1171.87 34.2369H1227.05C1228.67 34.2369 1229.6 32.3476 1228.56 31.0821L1209.67 7.44794C1208.89 6.47098 1207.9 5.68187 1206.78 5.13889C1205.65 4.5959 1204.42 4.31292 1203.17 4.31096H1096.35C1094.6 4.31096 1093.19 5.7191 1093.19 7.46579V31.0999C1093.19 32.811 1094.6 34.2366 1096.35 34.2366ZM34.3105 168.984L163.389 7.46579C164.405 6.20032 163.496 4.31103 161.874 4.31103H129.596C127.065 4.31103 124.658 5.46959 123.09 7.44801L31.5122 122.018V7.44801C31.5122 5.70129 30.1041 4.29317 28.3574 4.29317H3.15479C1.40807 4.29317 0 5.70129 0 7.44801V168.966C0 170.712 1.40807 172.12 3.15479 172.12H27.8049C30.3358 172.12 32.7242 170.962 34.3105 168.984ZM125.318 168.984L169.717 113.427L214.115 168.984C214.897 169.962 215.89 170.752 217.019 171.296C218.149 171.839 219.386 172.121 220.639 172.12H245.289C247.035 172.12 248.443 170.712 248.443 168.966V7.44801C248.443 5.71913 247.035 4.29317 245.289 4.29317H224.613C219.551 4.29317 214.757 6.59243 211.584 10.5493L85.0009 168.948C83.9849 170.213 84.8939 172.103 86.5159 172.103H118.794C121.343 172.12 123.732 170.962 125.318 168.984ZM216.913 50.9733V125.387L187.184 88.189L216.913 50.9733ZM937.647 168.948L808.569 7.43015C807.789 6.45319 806.799 5.66401 805.673 5.12103C804.547 4.57805 803.313 4.29513 802.063 4.29317H777.395C775.648 4.29317 774.24 5.70129 774.24 7.44801V168.966C774.24 170.712 775.648 172.12 777.395 172.12H802.045C804.576 172.12 806.982 170.962 808.551 168.984L852.949 113.427L897.348 168.984C898.128 169.96 899.118 170.75 900.244 171.293C901.37 171.836 902.604 172.118 903.854 172.12H936.132C937.754 172.12 938.663 170.231 937.647 168.948ZM835.464 88.189L805.717 125.405V50.9733L835.464 88.189ZM480.257 0.104645C431.599 0.104645 392.155 39.5483 392.155 88.2068C392.155 136.865 431.599 176.309 480.257 176.309C528.916 176.309 568.36 136.865 568.36 88.2068C568.377 39.5483 528.916 0.104645 480.257 0.104645ZM480.257 146.365C448.995 146.365 423.667 120.325 423.667 88.2068C423.667 56.0886 448.995 30.0305 480.257 30.0305C511.52 30.0305 536.847 56.0708 536.847 88.2068C536.865 120.325 511.52 146.365 480.257 146.365ZM1039.79 7.44801V122.018L948.217 7.43015C947.437 6.45319 946.447 5.66401 945.321 5.12103C944.195 4.57805 942.961 4.29513 941.711 4.29317H917.025C915.296 4.29317 913.87 5.70129 913.87 7.44801V85.2837C913.87 87.173 914.512 89.0089 915.706 90.4882L941.925 123.302C943.083 124.745 945.401 123.925 945.401 122.089V54.3598L1037 168.984C1037.78 169.96 1038.77 170.75 1039.89 171.293C1041.02 171.836 1042.25 172.118 1043.5 172.12H1068.15C1069.9 172.12 1071.31 170.712 1071.31 168.966V7.44801C1071.31 5.71913 1069.9 4.29317 1068.15 4.29317H1042.95C1041.2 4.29317 1039.79 5.71913 1039.79 7.44801ZM731.874 42.4536V7.44801C731.874 5.70129 730.466 4.29317 728.719 4.29317H599.729C597.983 4.29317 596.574 5.70129 596.574 7.44801V168.966C596.574 170.712 597.983 172.12 599.729 172.12H624.932C626.679 172.12 628.087 170.712 628.087 168.966V34.2547H700.361L651.578 95.3185C650.669 96.4592 650.669 98.0989 651.578 99.2575L707.313 169.001C708.093 169.978 709.082 170.767 710.208 171.31C711.334 171.853 712.568 172.136 713.818 172.138H746.097C747.719 172.138 748.628 170.249 747.612 168.984L690.327 97.3147L730.038 47.6937C731.214 46.1787 731.874 44.3429 731.874 42.4536ZM289.438 172.12H364.226C366.757 172.12 369.163 170.962 370.731 168.984L389.624 145.332C390.64 144.066 389.732 142.177 388.109 142.177H317.795V7.44801C317.795 5.70129 316.387 4.29317 314.64 4.29317H289.438C287.691 4.29317 286.283 5.70129 286.283 7.44801V168.966C286.283 170.695 287.709 172.12 289.438 172.12Z" fill="white"/>
</svg>
